<svg xmlns="http://www.w3.org/2000/svg" width="752" height="250" viewBox="0 0 752 250" version="1.1"><path d="M 494.388 85.980 C 493.227 86.449, 491.270 88.108, 490.040 89.667 C 486.871 93.681, 487.582 101.384, 491.427 104.691 C 495.570 108.255, 504 107.719, 504 103.893 C 504 101.956, 502.434 101.258, 501.833 102.926 C 501.650 103.435, 500.274 104.156, 498.775 104.528 C 496.572 105.075, 495.471 104.625, 493.025 102.179 C 489.127 98.281, 489.095 94.751, 492.923 90.923 C 496.230 87.617, 497.358 87.417, 501.250 89.447 C 503.757 90.755, 504 90.724, 504 89.101 C 504 88.122, 502.854 86.799, 501.453 86.161 C 498.522 84.825, 497.323 84.794, 494.388 85.980 M 543.697 88.768 C 538 97.104, 537.027 101.493, 539.896 105.905 C 541.311 108.081, 547.193 107.480, 549.242 104.949 C 552.640 100.754, 550.242 94, 545.354 94 L 542.822 94 545.411 90.923 C 548.156 87.661, 548.543 86.454, 547.124 85.577 C 546.642 85.279, 545.100 86.715, 543.697 88.768 M 558.009 85.893 C 554.721 86.808, 553.071 91.282, 554.926 94.253 C 555.889 95.795, 555.949 96.517, 555.136 96.788 C 553.627 97.291, 553.676 104.276, 555.200 105.800 C 555.860 106.460, 558.120 107, 560.221 107 C 563.296 107, 564.259 106.526, 565.148 104.574 C 565.813 103.114, 565.935 101.023, 565.454 99.324 C 565.014 97.771, 564.771 94.399, 564.913 91.831 C 565.125 88.013, 564.804 86.965, 563.152 86.081 C 562.041 85.487, 560.989 85.045, 560.816 85.100 C 560.642 85.155, 559.379 85.511, 558.009 85.893 M 584.998 86.750 C 584.999 87.541, 586.468 88, 589 88 C 591.200 88, 593 88.212, 593 88.470 C 593 88.729, 591.945 91.317, 590.656 94.220 C 586.634 103.281, 585.707 106.040, 586.440 106.774 C 587.415 107.749, 589.357 104.049, 596.639 87.342 C 596.981 86.556, 595.194 86.075, 591.070 85.842 C 586.694 85.596, 584.997 85.849, 584.998 86.750 M 603.400 85.765 C 601.169 87.255, 600 91.018, 600 96.712 C 600 103.262, 601.649 106.509, 605.336 107.213 C 611.484 108.389, 615.026 99.111, 611.877 90.078 C 610.529 86.211, 606.104 83.960, 603.400 85.765 M 474 96.500 C 474 105.167, 474.262 107, 475.500 107 C 476.622 107, 477.002 105.803, 477.006 102.250 L 477.012 97.500 480.256 102.218 C 482.040 104.813, 484.063 106.950, 484.750 106.968 C 486.574 107.015, 486.253 105.969, 483.082 101.531 C 480.250 97.565, 480.249 97.560, 482.373 96.508 C 485.091 95.162, 485.749 89.892, 483.483 87.625 C 482.534 86.677, 480.222 86, 477.929 86 L 474 86 474 96.500 M 524.500 87 C 524.160 87.550, 524.809 88, 525.941 88 C 527.875 88, 528 88.576, 528 97.500 C 528 103.167, 528.404 107, 529 107 C 529.603 107, 530 102.833, 530 96.500 C 530 86.034, 529.992 86, 527.559 86 C 526.216 86, 524.840 86.450, 524.500 87 M 570.989 87.250 C 570.983 87.938, 570.688 90.254, 570.334 92.397 C 569.698 96.250, 569.722 96.287, 572.441 95.604 C 576.962 94.470, 579.369 98.268, 577.393 103.418 C 576.694 105.239, 572.928 105.528, 571.287 103.887 C 569.624 102.224, 567.584 103.793, 569.074 105.589 C 570.993 107.901, 577.619 107.383, 579.443 104.777 C 582.685 100.150, 579.987 93, 575 93 C 573.533 93, 573 92.333, 573 90.500 C 573 88.310, 573.433 88, 576.500 88 C 578.425 88, 580 87.550, 580 87 C 580 86.450, 577.975 86, 575.500 86 C 572.573 86, 570.996 86.437, 570.989 87.250 M 616 87 C 616 87.550, 617.800 88, 620 88 C 622.200 88, 623.992 88.338, 623.983 88.750 C 623.974 89.162, 622.414 93.325, 620.516 98 C 618.515 102.929, 617.498 106.649, 618.095 106.854 C 619.379 107.296, 618.868 108.214, 623.685 96.805 C 625.936 91.473, 627.528 86.861, 627.222 86.555 C 626.231 85.564, 616 85.969, 616 87 M 557.181 91.177 C 557.449 93.970, 557.899 94.500, 560 94.500 C 562.111 94.500, 562.500 94.033, 562.500 91.500 C 562.500 88.953, 562.075 88.451, 559.681 88.177 C 557.038 87.874, 556.882 88.061, 557.181 91.177 M 603.161 90.547 C 600.694 95.961, 602.548 105, 606.125 105 C 608.621 105, 610 101.975, 610 96.500 C 610 93.953, 609.534 90.998, 608.965 89.934 C 607.510 87.215, 604.536 87.529, 603.161 90.547 M 477 91.500 C 477 93.484, 477.504 94, 479.441 94 C 482.441 94, 483.579 92.402, 481.964 90.456 C 479.943 88.021, 477 88.640, 477 91.500 M 508.446 95.087 C 507.416 96.755, 509.733 98.667, 511.113 97.287 C 512.267 96.133, 511.545 94, 510 94 C 509.515 94, 508.816 94.489, 508.446 95.087 M 541.607 97.582 C 540.233 101.163, 540.966 103.953, 543.443 104.575 C 546.376 105.311, 547.588 104.685, 548.269 102.080 C 549.364 97.892, 543.109 93.668, 541.607 97.582 M 557.544 98.344 C 556.174 99.346, 555.879 100.382, 556.387 102.407 C 556.943 104.621, 557.556 105.068, 559.684 104.813 C 563.528 104.353, 564.883 101.634, 562.553 99.059 C 560.356 96.631, 559.963 96.575, 557.544 98.344 M 508.688 104.646 C 507.383 105.950, 508.006 107, 510.083 107 C 511.247 107, 511.992 106.476, 511.771 105.813 C 511.284 104.351, 509.614 103.719, 508.688 104.646 M 142.459 203.067 C 142.096 203.653, 142.068 204.402, 142.397 204.730 C 143.185 205.518, 137.135 210.947, 134.190 212.096 C 132.919 212.591, 132.146 213.427, 132.472 213.954 C 132.798 214.481, 133.725 214.659, 134.532 214.349 C 135.770 213.874, 136 215.590, 136 225.322 C 136 238.812, 136.617 240, 143.617 240 C 147.034 240, 148.671 239.420, 150.545 237.545 C 153.061 235.030, 153.920 229.687, 152 228.500 C 151.405 228.132, 151 229.323, 151 231.441 C 151 233.398, 150.564 235, 150.031 235 C 149.499 235, 149.278 235.563, 149.542 236.250 C 149.839 237.026, 149.069 237.555, 147.510 237.644 L 145 237.788 145 225.787 C 145 216.603, 145.293 213.896, 146.250 214.255 C 146.938 214.512, 148.400 214.367, 149.500 213.932 L 151.500 213.141 149.500 212.952 C 148.400 212.848, 146.938 212.836, 146.250 212.925 C 145.381 213.038, 145 211.399, 145 207.544 C 145 202.363, 143.992 200.587, 142.459 203.067 M 267.339 204.912 C 266.724 206.543, 264.366 209.007, 261.977 210.514 C 258.848 212.490, 258.072 213.427, 259.059 214.037 C 259.799 214.494, 260.651 214.714, 260.952 214.527 C 261.254 214.339, 261.361 219.260, 261.192 225.463 C 260.829 238.738, 261.473 240, 268.617 240 C 274.479 240, 278 236.765, 278 231.379 C 278 226.832, 276.860 227.723, 275.507 233.326 C 274.738 236.513, 273.968 237.576, 272.250 237.820 C 270.029 238.135, 270 237.993, 270 226.653 L 270 215.167 272.750 214.162 L 275.500 213.158 272.750 213.079 C 270.093 213.003, 270 212.814, 270 207.500 C 270 201.420, 269.018 200.464, 267.339 204.912 M 316 203 C 316 203.550, 316.675 204, 317.500 204 C 318.611 204, 319 205.167, 319 208.500 L 319 213 314.539 213 C 306.978 213, 304.127 218.210, 305.320 229.848 C 306.183 238.274, 308.272 239.698, 320.006 239.861 C 328.006 239.972, 329.131 239.783, 328.605 238.413 C 328.272 237.546, 328 228.998, 328 219.418 L 328 202 322 202 C 318.667 202, 316 202.444, 316 203 M 352.030 203.279 C 348.736 204.946, 346.539 209.041, 347.316 212.069 C 347.658 213.406, 349.553 216.300, 351.527 218.500 C 357.722 225.406, 363 232.622, 363 234.186 C 363 235.013, 362.119 236.487, 361.042 237.462 C 359.167 239.159, 358.946 239.153, 355.792 237.325 C 353.286 235.873, 352.027 234.053, 350.520 229.709 C 349.431 226.569, 348.253 224, 347.902 224 C 346.331 224, 345.995 238.328, 347.530 239.864 C 347.784 240.117, 349.047 239.844, 350.338 239.256 C 351.756 238.610, 353.241 238.539, 354.092 239.078 C 356.797 240.791, 365.561 240.133, 368.253 238.016 C 373.893 233.579, 372.481 228.109, 363.114 218.112 C 356.230 210.766, 353.872 206.334, 356.090 204.911 C 359.897 202.471, 363.749 205.520, 366.266 212.967 C 368.662 220.054, 370 219.221, 370 210.642 C 370 202.926, 369.041 200.891, 366.427 203.061 C 365.288 204.006, 364.353 204.026, 362.423 203.147 C 359.160 201.660, 355.129 201.711, 352.030 203.279 M 450.042 203.449 C 447.994 205.917, 450.517 208.169, 454.914 207.801 C 457.992 207.543, 458.500 207.146, 458.500 205 C 458.500 202.854, 457.992 202.457, 454.914 202.199 C 452.595 202.005, 450.874 202.446, 450.042 203.449 M 547.385 203.181 C 546.844 204.062, 548.770 205.261, 549.750 204.653 C 550.163 204.397, 550.367 211.795, 550.204 221.094 C 550.032 230.953, 549.511 238, 548.954 238 C 548.429 238, 548 238.450, 548 239 C 548 239.615, 553 240, 561 240 L 574 240 574 232 C 574 227.333, 573.583 224, 573 224 C 572.450 224, 572 224.845, 572 225.878 C 572 228.444, 569.407 234.451, 567.457 236.400 C 566.577 237.280, 564.539 238, 562.929 238 L 560 238 560.015 222.250 C 560.030 206.977, 560.647 203.046, 562.819 204.388 C 563.393 204.743, 564.124 204.609, 564.444 204.090 C 564.786 203.537, 561.471 203.014, 556.415 202.824 C 551.678 202.646, 547.615 202.806, 547.385 203.181 M 583.562 205.197 C 582.679 207.312, 580.619 209.408, 577.953 210.906 C 574.472 212.863, 574.023 213.433, 575.370 214.187 C 576.711 214.938, 577 216.912, 577 225.327 C 577 238.546, 578.069 240.440, 585.147 239.760 C 591.465 239.153, 594 236.870, 594 231.786 C 594 229.438, 593.601 228.128, 593 228.500 C 592.450 228.840, 592 230.409, 592 231.988 C 592 234.725, 589.822 238, 588.002 238 C 586.684 238, 586.474 235.613, 586.813 224.442 L 587.126 214.121 589.813 213.710 L 592.500 213.300 589.750 213.150 C 587.141 213.008, 587 212.746, 587 208.059 C 587 202.011, 585.437 200.710, 583.562 205.197 M 608.500 203 C 608.160 203.550, 608.474 204, 609.198 204 C 610.145 204, 610.414 205.265, 610.157 208.500 C 609.799 212.994, 609.794 213, 605.938 213 C 603.323 213, 601.456 213.667, 600.150 215.069 C 597.005 218.445, 596.102 226.226, 598.043 233.216 C 599.726 239.274, 600.819 239.814, 611.058 239.648 L 620.178 239.500 620.047 221.587 C 619.975 211.735, 619.684 203.297, 619.399 202.837 C 618.667 201.652, 609.246 201.793, 608.500 203 M 88 203.906 C 88 204.405, 88.970 204.559, 90.156 204.249 C 91.451 203.910, 92.068 204.081, 91.700 204.677 C 91.363 205.222, 91.024 213.280, 90.948 222.584 L 90.808 239.500 97.404 239.796 C 101.515 239.980, 104 239.697, 104 239.046 C 104 238.471, 103.311 238, 102.469 238 C 101.150 238, 100.954 235.637, 101.050 220.924 C 101.143 206.618, 101.392 203.936, 102.581 204.393 C 103.361 204.692, 104 204.501, 104 203.969 C 104 203.425, 100.494 203, 96 203 C 91.600 203, 88 203.408, 88 203.906 M 198.500 211.978 C 197.400 212.463, 194.117 212.891, 191.205 212.930 C 186.945 212.986, 185.420 213.489, 183.409 215.500 C 181.159 217.750, 180.938 218.677, 181.204 224.750 C 181.462 230.644, 181.785 231.625, 183.750 232.487 C 184.988 233.030, 186 233.818, 186 234.237 C 186 235.403, 195.861 235.145, 198.150 233.920 C 200.702 232.554, 203 227.137, 203 222.487 C 203 219.971, 202.231 218.140, 200.410 216.319 C 198.389 214.298, 198.114 213.545, 199.160 212.891 C 200.062 212.327, 200.620 212.616, 200.866 213.776 C 201.662 217.529, 206.339 217.383, 205.803 213.623 C 205.467 211.267, 201.924 210.469, 198.500 211.978 M 108.442 213.021 C 106.414 213.381, 105.904 213.797, 106.800 214.361 C 107.767 214.970, 108.058 218.299, 107.933 227.340 L 107.765 239.500 112.504 239.500 L 117.242 239.500 117.070 227.877 C 116.928 218.293, 117.165 216.151, 118.417 215.670 C 120.818 214.749, 121.120 216.265, 120.925 228.242 L 120.742 239.500 125.621 239.795 L 130.500 240.091 130.194 227.621 C 129.953 217.808, 129.555 214.876, 128.326 213.856 C 126.731 212.532, 114.180 212.005, 108.442 213.021 M 159.353 213.917 C 155.304 216.398, 153.569 221.534, 154.321 228.817 C 155.074 236.117, 157.917 239.093, 164.765 239.751 C 167.619 240.026, 170.651 239.722, 171.939 239.033 C 175.394 237.184, 178.928 227.186, 175.750 228.253 C 175.063 228.483, 174.473 229.308, 174.441 230.086 C 174.300 233.443, 172.652 236.129, 169.839 237.583 C 165.143 240.012, 163.844 238.901, 164.197 232.761 L 164.500 227.500 170.879 227.199 L 177.258 226.898 176.628 222.300 C 176.281 219.771, 175.472 217.069, 174.831 216.296 C 171.487 212.267, 163.938 211.107, 159.353 213.917 M 213.500 213.093 C 210.750 213.419, 209.063 213.756, 209.750 213.843 C 211.323 214.041, 211.571 238, 210 238 C 209.450 238, 209 238.450, 209 239 C 209 239.578, 212.062 239.987, 216.250 239.968 C 222.669 239.940, 223.289 239.776, 221.659 238.541 C 220.019 237.299, 219.855 235.879, 220.159 225.573 L 220.500 214.001 223.473 214 L 226.445 214 224.223 215.557 C 221.433 217.511, 221.384 219.600, 224.093 221.050 C 228.389 223.349, 233.061 219.929, 231.430 215.679 C 230.374 212.926, 223.394 211.920, 213.500 213.093 M 240.337 213.033 C 235.294 213.734, 232.802 215.613, 233.202 218.412 C 233.440 220.079, 234.323 220.560, 237.586 220.800 C 242.634 221.169, 245.609 218.650, 242.666 216.498 C 241.698 215.790, 239.958 215.460, 238.797 215.763 C 237.358 216.140, 236.915 215.947, 237.403 215.158 C 238.411 213.526, 243.520 213.716, 244.950 215.440 C 245.607 216.231, 245.999 218.111, 245.822 219.617 C 245.532 222.085, 244.882 222.502, 239.250 223.833 C 232.417 225.449, 232.510 225.300, 232.875 233.960 C 233.102 239.374, 234.181 240.218, 240 239.535 C 246.371 238.788, 247.169 238.789, 250.236 239.549 C 254.082 240.503, 260 239.233, 260 237.455 C 260 235.785, 258.421 235.509, 257.490 237.016 C 255.887 239.610, 255 236.061, 255 227.052 C 255 213.276, 252.916 211.284, 240.337 213.033 M 289.500 212.491 C 288.950 212.675, 287.271 213.096, 285.768 213.427 C 281.805 214.300, 280 218.557, 280 227.027 C 280 233.571, 280.239 234.393, 282.923 237.077 C 285.320 239.474, 286.688 240, 290.519 240 C 295.839 240, 300.594 237.633, 301.415 234.576 C 302.612 230.118, 302.004 218.936, 300.434 216.540 C 298.397 213.431, 292.846 211.375, 289.500 212.491 M 412.424 212.908 C 412.200 213.132, 408.976 213.266, 405.259 213.205 C 401.541 213.144, 399.063 213.335, 399.750 213.630 C 401.467 214.367, 401.512 237.088, 399.800 238.800 C 398.867 239.733, 400.089 240, 405.300 240 C 409.100 240, 412 239.567, 412 239 C 412 238.450, 411.550 238, 411 238 C 409.904 238, 409.810 222.494, 410.876 217.512 C 411.281 215.621, 412.246 214.386, 413.508 214.146 C 415.425 213.782, 415.434 213.841, 413.726 215.739 C 411.503 218.209, 412.400 220.811, 415.765 221.656 C 420.479 222.839, 423.644 218.787, 420.479 215.621 C 418.983 214.126, 419.021 214, 420.960 214 C 423.407 214, 423.086 213.182, 426.543 228.250 L 429.238 240 432.644 240 C 436.654 240, 436.641 240.026, 440.056 224.868 C 441.751 217.342, 442.823 214.379, 443.726 214.725 C 444.426 214.994, 445 214.716, 445 214.107 C 445 213.479, 443.242 213, 440.941 213 C 438.446 213, 437.124 213.392, 437.510 214.016 C 437.856 214.575, 438.605 214.744, 439.176 214.391 C 439.808 214.001, 440.013 214.484, 439.700 215.625 C 439.417 216.656, 438.843 218.850, 438.424 220.500 C 438.006 222.150, 437.570 223.838, 437.457 224.250 C 437.343 224.662, 437.194 226.200, 437.125 227.667 C 436.951 231.374, 436.332 230.373, 434.538 223.486 C 433.689 220.224, 432.722 216.699, 432.390 215.652 C 431.961 214.303, 432.145 213.972, 433.023 214.514 C 433.779 214.982, 434.105 214.816, 433.862 214.086 C 433.595 213.284, 430.092 212.830, 423.147 212.697 C 417.472 212.589, 412.647 212.684, 412.424 212.908 M 448 213.500 C 448 214.260, 448.473 215.174, 449.052 215.532 C 449.707 215.937, 450.036 220.576, 449.926 227.841 L 449.749 239.500 454.403 239.806 L 459.057 240.112 458.779 226.403 L 458.500 212.693 453.250 212.405 C 449.310 212.189, 448 212.462, 448 213.500 M 468.662 213.669 C 464.807 215.689, 464 217.993, 464 226.980 C 464 234.258, 464.252 235.343, 466.455 237.545 C 468.418 239.509, 469.928 240, 474 240 C 480.673 240, 484 237.021, 484 231.045 C 484 225.727, 482.419 225.843, 481.698 231.215 C 481.088 235.762, 478.981 238, 475.309 238 C 473.031 238, 473 237.848, 473 226.469 C 473 217.017, 473.277 214.831, 474.537 214.347 C 476.618 213.549, 479.682 216.505, 481.040 220.621 C 482.538 225.161, 484 224.895, 484 220.082 C 484 217.927, 484.275 215.448, 484.610 214.574 C 485.097 213.304, 484.543 213.005, 481.860 213.088 C 480.012 213.146, 476.874 212.992, 474.887 212.747 C 472.887 212.500, 470.108 212.911, 468.662 213.669 M 492.665 213.278 C 488.781 214.573, 486.707 220.065, 487.198 227.761 C 487.567 233.570, 487.954 234.570, 490.822 237.132 C 494.252 240.197, 499.428 240.928, 504.374 239.048 C 507.607 237.819, 508.673 235.715, 509.408 229.113 C 510.190 222.088, 508.629 216.458, 505.292 214.272 C 502.447 212.408, 496.647 211.951, 492.665 213.278 M 514.506 214.403 C 513.128 215.781, 512 217.762, 512 218.805 C 512 220.874, 516.391 227.331, 519.946 230.489 C 523.478 233.626, 524.215 235.642, 522.469 237.388 C 521.629 238.228, 520.263 238.655, 519.434 238.336 C 517.740 237.686, 515 231.791, 515 228.795 C 515 227.670, 514.467 227.011, 513.750 227.250 C 512.941 227.519, 512.500 229.719, 512.500 233.487 L 512.500 239.308 519.105 239.661 C 524.619 239.957, 526.148 239.672, 528.355 237.935 C 532.721 234.501, 531.966 230.866, 525.500 224.191 C 520.032 218.546, 518.778 215.683, 521.341 214.700 C 523.451 213.890, 525.024 215.384, 526.461 219.565 C 528.560 225.669, 530.156 225.154, 529.803 218.489 L 529.500 212.775 523.256 212.336 C 517.619 211.939, 516.769 212.140, 514.506 214.403 M 377.539 215.553 C 372.738 220.733, 373.392 233.803, 378.659 237.946 C 382.480 240.952, 389.990 240.773, 393.694 237.587 C 396.368 235.288, 396.500 234.765, 396.500 226.494 C 396.500 218.051, 396.418 217.749, 393.500 215.412 C 389.116 211.902, 380.855 211.974, 377.539 215.553 M 190.639 214.694 C 190.288 215.046, 190 219.533, 190 224.667 C 190 232.296, 190.274 234, 191.500 234 C 192.727 234, 193 232.284, 193 224.559 C 193 215.901, 192.311 213.022, 190.639 214.694 M 290.639 214.694 C 290.288 215.046, 290 217.508, 290 220.167 C 290 223.796, 290.374 225, 291.500 225 C 292.631 225, 293 223.784, 293 220.059 C 293 215.389, 292.066 213.267, 290.639 214.694 M 384 219.573 C 384 224.341, 384.253 225.099, 385.750 224.815 C 388.866 224.224, 388.612 214, 385.481 214 C 384.350 214, 384 215.318, 384 219.573 M 496.630 216.250 C 496.299 217.488, 496.021 219.994, 496.014 221.820 C 496.002 224.693, 496.302 225.096, 498.250 224.820 C 500.066 224.562, 500.561 223.763, 500.815 220.680 C 501.272 215.126, 497.891 211.546, 496.630 216.250 M 606.808 226.056 C 606.529 236.886, 606.664 238.004, 608.250 238.002 C 609.814 238, 610 236.790, 610 226.607 C 610 217.606, 609.697 215.098, 608.558 214.661 C 607.361 214.201, 607.063 216.142, 606.808 226.056 M 164 220 C 164 224.333, 164.267 225, 166 225 C 167.733 225, 168 224.333, 168 220 C 168 215.667, 167.733 215, 166 215 C 164.267 215, 164 215.667, 164 220 M 315 226.500 C 315 237.750, 315.757 240.192, 317.965 236.066 C 319.426 233.336, 319.296 217.696, 317.800 216.200 C 317.140 215.540, 316.240 215, 315.800 215 C 315.360 215, 315 220.175, 315 226.500 M 243.200 225.200 C 241.781 226.619, 241.577 236.620, 242.950 237.469 C 244.436 238.387, 245.662 234.989, 245.916 229.250 C 246.149 223.995, 245.449 222.951, 243.200 225.200 M 290.653 227.752 C 289.655 229.367, 289.634 237.034, 290.626 238.026 C 291.873 239.273, 295.958 237.960, 297.823 235.713 C 298.505 234.891, 299.271 232.594, 299.526 230.609 L 299.988 227 295.553 227 C 293.114 227, 290.909 227.338, 290.653 227.752 M 384 232.441 C 384 235.434, 384.384 238.119, 384.853 238.409 C 386.562 239.465, 391.945 236.544, 392.897 234.044 C 395.618 226.900, 395.665 227, 389.567 227 L 384 227 384 232.441 M 496.847 232.085 C 496.459 237.774, 497.319 239.049, 501.060 238.331 C 503.949 237.776, 505.974 235.050, 507.055 230.257 L 507.789 227 502.491 227 L 497.193 227 496.847 232.085 M 626.500 233.740 C 625.950 234.158, 625.394 235.506, 625.265 236.735 C 624.860 240.574, 632.216 241.206, 633.655 237.455 C 633.991 236.581, 633.868 235.478, 633.383 235.004 C 632.040 233.693, 627.628 232.883, 626.500 233.740 M 181.200 235.200 C 179.669 236.731, 179.639 240, 181.155 240 C 181.846 240, 181.645 240.735, 180.655 241.829 C 178.353 244.373, 178.578 245.677, 181.669 247.703 C 185.407 250.152, 197.489 250.036, 201.338 247.514 C 203.530 246.078, 204.042 245.062, 203.802 242.624 C 203.398 238.509, 200.227 237.033, 191.750 237.015 C 186.423 237.003, 185 236.684, 185 235.500 C 185 233.700, 182.869 233.531, 181.200 235.200 M 182.406 243.152 C 180.385 246.422, 191.855 248.341, 198.851 245.902 C 202.308 244.697, 202.857 243.543, 200.418 242.607 C 197.539 241.502, 183.157 241.937, 182.406 243.152" stroke="none" fill="#3a3676" fill-rule="evenodd"/><path d="M 267.453 57.347 C 263.795 61.005, 263.657 64.836, 267.151 65.750 C 270.114 66.525, 269.337 68.411, 264 73.403 C 256.559 80.363, 257.737 82.499, 266.054 77.130 C 274.474 71.694, 279 65.404, 279 59.135 C 279 53.032, 272.738 52.062, 267.453 57.347 M 191.407 57.893 C 185.636 61.413, 176.977 74.094, 172.138 86.115 C 168.889 94.185, 167.381 96, 163.923 96 C 160.467 96, 154.094 92.253, 151.782 88.861 L 150.172 86.500 147.906 88.708 C 145.992 90.573, 145.811 91.290, 146.741 93.330 C 148.112 96.339, 155.471 100, 160.149 100 C 162.084 100, 163.966 100.300, 164.332 100.666 C 166.190 102.524, 144.026 138.564, 134.047 149.911 L 130.168 154.322 122.338 147.107 C 111.738 137.340, 103.043 132.997, 94.116 133.010 C 85.539 133.022, 78.658 136.112, 73.813 142.126 C 69.358 147.656, 67.994 151.723, 68.022 159.399 C 68.048 166.605, 70.262 172.108, 75.069 176.915 C 79.661 181.507, 84.359 183.312, 91.634 183.280 C 101.089 183.238, 110.418 178.386, 121.762 167.609 L 126.024 163.560 136.262 173.617 C 148.965 186.096, 153.067 189.249, 161.687 193.159 C 175.251 199.312, 190.184 197.900, 200.442 189.494 C 205.033 185.732, 206.671 182.896, 205.422 180.874 C 204.964 180.133, 203.444 181.118, 201.107 183.670 C 195.295 190.019, 190.808 192.093, 182.599 192.226 C 174.042 192.365, 169.412 190.467, 158.759 182.454 C 150.227 176.037, 133 159.293, 133 157.417 C 133 156.702, 135.194 153.609, 137.875 150.545 C 146.542 140.642, 161.245 117.783, 167.814 104 C 169.622 100.205, 171.020 98.954, 176.729 96.014 C 189.761 89.304, 202.388 72.990, 202.241 63.050 C 202.139 56.162, 197.707 54.052, 191.407 57.893 M 191.500 63.101 C 188.478 64.597, 181.467 74.509, 176.990 83.613 C 174.795 88.075, 173 92.013, 173 92.363 C 173 94.809, 180.897 90.030, 187.715 83.457 C 194.856 76.573, 199.557 62.931, 195 62.314 C 194.175 62.202, 192.600 62.557, 191.500 63.101 M 424.314 65.354 C 411.856 70.407, 390.964 85.514, 392.653 88.248 C 393.014 88.832, 392.842 89.020, 392.271 88.668 C 391.700 88.315, 389.493 89.820, 387.367 92.012 C 385.240 94.205, 383.159 95.999, 382.741 95.999 C 382.324 96, 382.264 93.604, 382.608 90.676 C 383.406 83.887, 381.319 79.449, 376.352 77.374 C 373.226 76.067, 372.212 76.084, 367.169 77.528 C 359.634 79.685, 350.238 84.873, 340.653 92.168 C 332.614 98.287, 330 98.903, 330 94.679 C 330 89.235, 322.171 81.686, 315.163 80.371 C 310.537 79.503, 300.920 81.487, 295.063 84.517 C 287.208 88.581, 279.291 95.670, 273.601 103.732 C 267.796 111.958, 266.247 115.647, 267.902 117.302 C 269.259 118.659, 272 116.368, 272 113.878 C 272 112.845, 272.363 112, 272.808 112 C 273.252 112, 274.417 110.182, 275.398 107.960 C 279.878 97.804, 293.774 87.056, 304.503 85.447 C 312.954 84.180, 320.815 88.180, 324.104 95.421 C 327.203 102.246, 326.728 103.845, 319.626 110.500 C 314.457 115.343, 304.456 126.803, 295.544 138.095 C 286.621 149.401, 277.876 166.308, 277.657 172.676 C 277.326 182.286, 283.260 180.792, 296.079 168.036 C 314.469 149.738, 328.282 126.651, 330.933 109.781 C 331.814 104.177, 332.383 103.091, 336.210 99.706 C 346.704 90.425, 363.052 82.523, 369.290 83.715 C 370.793 84.002, 373.190 85.626, 374.619 87.323 C 376.793 89.907, 377.144 91.148, 376.776 94.955 C 376.123 101.718, 373.856 105.636, 362.143 120.249 C 346.131 140.224, 338.681 150.821, 328.179 168.558 C 323.581 176.324, 322.993 179, 325.884 179 C 329.841 179, 350.009 152.122, 364.907 126.993 C 377.905 105.069, 381.927 99.962, 395.920 87.615 C 412.278 73.180, 430.274 65.417, 435.429 70.571 C 438.656 73.799, 436.921 82.987, 431.571 91 C 427.381 97.275, 413.650 118.424, 411.768 121.500 C 407.279 128.836, 395.965 153.347, 394.554 158.792 C 392.717 165.882, 392.523 178.675, 394.169 184.171 C 395.573 188.855, 399.175 193, 401.841 193 C 402.907 193, 404.820 192.156, 406.094 191.125 C 408.323 189.320, 408.345 189.160, 406.694 186.875 C 399.346 176.703, 399.495 177.119, 399.573 167 C 399.703 150.271, 406.613 134.583, 427.930 102.620 C 442.665 80.527, 446.103 73.032, 444.019 67.549 C 443.016 64.913, 437.860 61.983, 434.282 62.017 C 433.302 62.026, 428.816 63.528, 424.314 65.354 M 316.603 118.038 C 295.692 140.204, 279.482 167.090, 284.979 170.487 C 288.020 172.367, 300.476 160.672, 310.591 146.441 C 319.248 134.261, 328.128 111, 324.121 111 C 323.638 111, 320.255 114.167, 316.603 118.038 M 622.518 118.329 C 617.921 122.733, 616.492 127, 619.614 127 C 621.717 127, 633 117.223, 633 115.401 C 633 114.513, 631.908 114, 630.018 114 C 627.863 114, 625.781 115.201, 622.518 118.329 M 215 129.324 C 204.079 133.494, 197.209 137.835, 189.403 145.500 C 181.203 153.552, 178.144 158.155, 176.132 165.468 C 173.517 174.976, 179.232 181.361, 188.196 178.947 C 193.282 177.578, 195.935 175.961, 203.150 169.834 C 209.067 164.810, 210 164.905, 210 170.535 C 210 176.910, 214.990 180.724, 221.056 178.984 C 227.081 177.256, 233.240 172.731, 244.602 161.687 C 257.202 149.439, 259.718 146.318, 258.213 144.813 C 257.582 144.182, 253.416 147.688, 246.370 154.777 C 230.547 170.697, 221.672 175.925, 217.993 171.492 C 216.119 169.233, 217.290 162.113, 220.756 154.708 C 222.518 150.943, 223.450 147.729, 222.995 146.992 C 221.564 144.677, 217.579 146.810, 214.671 151.448 C 204.742 167.282, 190.166 176.261, 184.520 170.023 C 181.964 167.198, 183.006 162.526, 187.929 154.730 C 193.188 146.402, 199.792 140.345, 208.243 136.097 C 225.164 127.592, 240.394 133.806, 229.450 144.750 C 224.653 149.547, 226.320 151.378, 232.038 147.593 C 238.849 143.086, 240.661 134.719, 235.783 130.304 C 233.221 127.985, 220.126 127.368, 215 129.324 M 715.909 130.422 C 696.167 137.451, 679 155.892, 679 170.071 C 679 175.612, 680.948 178.447, 685.550 179.602 C 690.548 180.856, 699.476 176.507, 707.898 168.714 C 710.106 166.672, 712.157 165, 712.456 165 C 712.755 165, 713 166.779, 713 168.953 C 713 173.953, 714.572 177.433, 717.551 179.027 C 722.753 181.811, 730.882 177.520, 744.360 164.874 C 750.403 159.204, 752.136 156.984, 751.860 155.267 C 751.541 153.288, 750.542 153.943, 743.083 161.025 C 734.437 169.234, 725.648 174.570, 722.662 173.424 C 718.863 171.966, 719.257 163.082, 723.506 154.399 C 726.353 148.579, 726.251 146, 723.173 146 C 721.982 146, 719.874 148.122, 717.474 151.737 C 712.340 159.470, 704.332 167.790, 699.797 170.104 C 697.752 171.147, 694.338 172, 692.209 172 C 684.117 172, 684.272 164.035, 692.592 152.339 C 698.139 144.541, 703.325 140.104, 711.796 135.911 C 720.626 131.540, 729.184 130.768, 733.250 133.976 C 736.981 136.919, 736.889 140.774, 733 144.500 C 731.350 146.081, 730 147.740, 730 148.187 C 730 150.152, 734.338 148.717, 737.693 145.643 C 740.910 142.695, 741.365 141.696, 741.428 137.453 C 741.494 133.044, 741.203 132.419, 738.102 130.311 C 733.503 127.183, 724.884 127.226, 715.909 130.422 M 573.903 133.488 C 569.167 135.955, 564.208 140.512, 550.672 154.833 C 541.418 164.624, 534.421 169.895, 529.652 170.669 C 524.237 171.548, 523.513 169.172, 525.527 157.129 C 527.480 145.450, 527.251 141.991, 524.455 140.966 C 520.426 139.489, 507.997 146.089, 491.751 158.335 C 487.493 161.544, 483.582 164.019, 483.060 163.835 C 481.959 163.447, 485.847 154.426, 491.250 144.833 C 493.313 141.171, 495 137.679, 495 137.073 C 495 135.187, 488.634 136.885, 486.738 139.277 C 480.027 147.745, 478.679 148.995, 475.228 149.954 C 468.711 151.764, 465.594 151.248, 460.977 147.594 C 456.276 143.874, 454 143.885, 454 147.628 C 454 149.228, 454.837 150.424, 456.481 151.173 C 459.740 152.658, 460.290 154.742, 458.975 160.612 C 457.053 169.187, 450.876 175, 443.685 175 C 434.103 175, 430.263 163.352, 435.963 151.577 C 440.486 142.232, 449.033 137.436, 456.408 140.103 C 459.550 141.239, 460.231 141.198, 461.647 139.782 C 462.541 138.887, 463.011 137.470, 462.689 136.633 C 461.963 134.740, 456.118 133.568, 451.620 134.412 C 446.333 135.403, 436.608 142.256, 432.958 147.561 C 424.348 160.075, 423.811 172.115, 431.559 178.918 C 434.573 181.564, 435.850 182, 440.584 182 C 446.918 182, 450.227 180.544, 454.593 175.835 C 459.406 170.645, 461.901 165.787, 462.774 159.905 C 463.565 154.577, 463.623 154.504, 466.792 154.754 C 468.560 154.894, 471.805 154.604, 474.003 154.111 C 478.843 153.023, 478.916 153.400, 475.500 161.808 C 472.470 169.265, 472.088 177.002, 474.750 176.996 C 475.712 176.994, 479.772 173.856, 483.772 170.023 C 491.862 162.270, 512.377 148.275, 517.010 147.348 C 520.565 146.637, 520.681 147.287, 518.500 155.661 C 517.675 158.829, 517 163.821, 517 166.756 C 517 178.601, 525.904 180.168, 538.676 170.570 C 541.879 168.163, 545.807 165.025, 547.406 163.597 C 549.004 162.169, 550.400 161, 550.509 161 C 550.617 161, 550.491 163.245, 550.227 165.988 C 549.647 172.025, 551.187 176.138, 555.332 179.626 C 562.375 185.552, 575.380 180.576, 591.447 165.806 C 595.818 161.788, 599.106 159.257, 598.754 160.182 C 598.402 161.108, 597.820 164.483, 597.460 167.682 C 596.893 172.727, 597.094 173.865, 598.976 176.250 C 603.143 181.533, 610.677 179.447, 623.946 169.338 C 627.800 166.402, 631.129 164, 631.346 164 C 631.563 164, 631.979 166.123, 632.272 168.717 C 632.902 174.307, 636.421 178, 641.118 178 C 645.084 178, 653.512 173.878, 658.489 169.505 C 665 163.784, 665.494 164.614, 660.576 173.005 C 653.737 184.675, 646.850 201.504, 643.561 214.584 C 642.720 217.930, 641.912 225.225, 641.766 230.795 C 641.544 239.229, 641.784 241.207, 643.200 242.625 C 644.605 244.033, 645.168 244.106, 646.450 243.042 C 647.302 242.334, 648.007 241.023, 648.015 240.128 C 648.062 234.854, 657.213 216.447, 662.656 210.678 C 664.552 208.668, 668.085 205.862, 670.506 204.444 C 674.529 202.086, 676.992 198.659, 675.638 197.305 C 673.024 194.691, 660.646 205.372, 654.744 215.334 L 650.500 222.498 650.203 218.977 C 650.040 217.041, 650.603 212.879, 651.453 209.728 C 652.304 206.578, 653.661 201.557, 654.469 198.570 C 657.172 188.578, 671.247 158.544, 678.526 147.235 C 681.324 142.889, 682.961 139.340, 682.601 138.402 C 681.710 136.080, 679.766 137.183, 677.420 141.342 C 673.611 148.094, 662.811 160.968, 657.982 164.513 C 655.360 166.438, 651.268 168.700, 648.889 169.539 C 644.840 170.968, 644.402 170.942, 642.032 169.144 C 639.941 167.557, 639.525 166.453, 639.645 162.808 C 639.869 156.002, 645.282 148.367, 654.083 142.444 C 659.505 138.795, 665.119 137.923, 669.182 140.098 C 670.772 140.948, 671.570 140.858, 672.732 139.696 C 674.064 138.365, 673.936 138.004, 671.583 136.462 C 667.873 134.032, 659.367 135.009, 653.304 138.562 C 650.774 140.045, 643.262 146.642, 636.612 153.222 C 621.335 168.337, 610.315 175.166, 606.418 171.932 C 603.183 169.247, 606.631 157.578, 614.297 145.272 C 617.492 140.142, 618.107 138.205, 616.694 137.718 C 614.577 136.988, 609.988 139.147, 608.726 141.466 C 606.658 145.267, 593.812 159.298, 588.069 164.027 C 580.391 170.351, 572.054 174.973, 568.297 174.987 C 561.817 175.013, 558.373 171.908, 557.555 165.304 C 556.805 159.249, 557.592 158.328, 564.094 157.648 C 579.734 156.013, 594.319 140.319, 587 133 C 584.333 130.333, 579.622 130.509, 573.903 133.488 M 571.274 139.878 C 565.289 144.609, 559.390 152.790, 560.885 154.285 C 562.332 155.732, 570.140 153.343, 575.442 149.831 C 579.862 146.903, 583.397 141.325, 582.808 138.210 C 582.602 137.123, 581.359 136.390, 579.397 136.198 C 577.041 135.968, 575.119 136.838, 571.274 139.878 M 83 138.704 C 80.365 139.663, 75.879 144.379, 73.851 148.324 C 71.424 153.043, 71.259 160.290, 73.459 165.556 C 80.274 181.871, 100.845 182.684, 117.889 167.313 C 122.298 163.337, 123.152 162.054, 122.583 160.260 C 121.504 156.862, 106.666 143.650, 100.581 140.671 C 95.307 138.089, 87.187 137.180, 83 138.704 M 221.010 215.512 C 222.022 216.731, 222.579 216.786, 223.883 215.795 C 224.772 215.119, 225.688 214.439, 225.917 214.283 C 226.146 214.127, 224.853 214, 223.044 214 C 220.222 214, 219.933 214.215, 221.010 215.512 M 411.459 215.067 C 410.286 216.964, 411.996 217.432, 413.738 215.690 C 415.297 214.132, 415.300 214, 413.773 214 C 412.863 214, 411.821 214.480, 411.459 215.067 M 420.266 215.409 C 422.160 217.303, 424.337 217.516, 423.755 215.750 C 423.529 215.063, 422.293 214.347, 421.009 214.159 C 418.876 213.848, 418.812 213.955, 420.266 215.409" stroke="none" fill="#2e87b1" fill-rule="evenodd"/></svg>